<svg width="154" height="32" viewBox="0 0 154 32" fill="none" xmlns="http://www.w3.org/2000/svg">
  <defs>
    <linearGradient id="zAccent" x1="10" y1="2" x2="24" y2="30" gradientUnits="userSpaceOnUse">
      <stop offset="0" stop-color="#34D399"/>
      <stop offset="1" stop-color="#2DD4BF"/>
    </linearGradient>
  </defs>
  <rect width="154" height="32" rx="7" fill="#0F172A"/>
  <g fill="none" stroke-linecap="round" stroke-linejoin="round" stroke-width="3.6">
    <!-- Z drawn as a mirrored USD symbol -->
    <g stroke="url(#zAccent)">
      <path d="M12 7 A6 6 0 1 1 17 16 A6 6 0 1 0 22 25"/>
      <path d="M17 2 V30"/>
    </g>
    <!-- ento -->
    <g stroke="#F8FAFC">
      <path d="M33 16 H53 A10 10 0 1 0 48 25.2"/>
      <path d="M65 26 V13 C65 5 83 5 83 13 V26"/>
      <path d="M104 4 V22 C104 25 106 25.5 109 24.5 M97 11 H113"/>
      <path d="M123 16 A10 10 0 1 0 143 16 A10 10 0 1 0 123 16"/>
    </g>
  </g>
</svg>
